<svg xmlns="http://www.w3.org/2000/svg" viewBox="0 0 181.95 181.95"><defs><style>.cls-1{fill:#ffdf29;}.cls-2,.cls-4{fill:#1f439b;}.cls-3{fill:#f86d5e;}.cls-4{font-size:8.45px;font-family:Poppins-SemiBold, Poppins;font-weight:700;}</style></defs><title>Asset 34</title><g id="Layer_2" data-name="Layer 2"><g id="Layer_1-2" data-name="Layer 1"><rect class="cls-1" width="181.95" height="181.95"/><path class="cls-2" d="M60.11,45H56.83v8.37h-13V24.6H60.11a10.19,10.19,0,0,1,0,20.37Z"/><path class="cls-2" d="M73.94,45V24.6H90.21a10.19,10.19,0,0,1,0,20.37l7.62,8.34-9.46,0H73.94Z"/><circle class="cls-2" cx="117.98" cy="38.96" r="14.37" transform="translate(42.16 137.39) rotate(-70.67)"/><path class="cls-2" d="M151.65,53.31h-16V24.6h16a15,15,0,0,1,0,28.71Z"/><path class="cls-2" d="M43.84,65.8V59.31H70.23v17.5c0,4.79-4.93,9.49-10.36,10.76a12.29,12.29,0,0,1-2.82.34,13.52,13.52,0,0,1-2.82-.3c-5.43-1.15-10.36-5.46-10.36-10.8V75.2h0Z"/><path class="cls-2" d="M77.65,63.45a14.36,14.36,0,0,1,20.33,0L87.82,73.61,98,83.77A14.37,14.37,0,1,1,77.65,63.45Z"/><polygon class="cls-2" points="101.72 59.31 128.11 59.31 128.11 73.61 122.13 73.61 122.13 87.98 107.7 87.98 107.7 73.61 101.72 73.61 101.72 59.31"/><path class="cls-2" d="M60.11,114.34H56.83v8.38h-13V94H60.11a10.19,10.19,0,0,1,0,20.37Z"/><path class="cls-2" d="M73.94,114.34V94H90.21a10.19,10.19,0,0,1,0,20.37l7.62,8.35-9.46,0H73.94Z"/><circle class="cls-2" cx="117.98" cy="108.34" r="14.37" transform="translate(-23.31 183.8) rotate(-70.67)"/><path class="cls-2" d="M151.65,122.68H141.29v0h-5.64V94h16a15,15,0,0,1,0,28.71Z"/><path class="cls-2" d="M43.84,135.17v-6.49H70.23v17.5c0,4.79-4.93,9.49-10.36,10.77a12.29,12.29,0,0,1-2.82.34,13.53,13.53,0,0,1-2.82-.31c-5.43-1.15-10.36-5.46-10.36-10.8v-1.61h0Z"/><path class="cls-2" d="M77.65,132.82a14.38,14.38,0,0,1,20.33,0L87.82,143,98,153.15a14.38,14.38,0,1,1-20.33-20.33Z"/><polygon class="cls-2" points="101.72 128.68 128.11 128.68 128.11 142.99 122.13 142.99 122.13 157.36 107.7 157.36 107.7 142.99 101.72 142.99 101.72 128.68"/><circle class="cls-3" cx="151.21" cy="73.7" r="2.21"/><path class="cls-3" d="M148,64.09a9.61,9.61,0,1,0,9.6,9.61A9.6,9.6,0,0,0,148,64.09Zm-.58,7.62h-2.12V77h-1.06V71.71h-2.13V70.65h5.31Zm3.75,5.4a3.42,3.42,0,1,1,3.42-3.41A3.42,3.42,0,0,1,151.21,77.11Z"/><text class="cls-4" transform="translate(30.55 156.68) rotate(-90)">HOSTED BY</text><circle class="cls-2" cx="29.2" cy="96.77" r="2.58"/><path class="cls-2" d="M21.19,101.89c-.08-.11-.15-.23-.22-.35h-.26a.18.18,0,0,0-.18.18v3.48a.18.18,0,0,0,.18.18h4.82A9.29,9.29,0,0,1,21.19,101.89Z"/><path class="cls-2" d="M20.26,97a8.63,8.63,0,0,0,8.61,8.42H31.6a.18.18,0,0,0,.18-.18v-3.48a.18.18,0,0,0-.18-.18H28.87A4.77,4.77,0,0,1,24.1,97a.18.18,0,0,0-.18-.18H20.45a.19.19,0,0,0-.19.18Z"/><path class="cls-2" d="M23.15,86.34a2.17,2.17,0,0,0,1.22,2.18h-.9a.13.13,0,0,0-.13.13v1.29a.12.12,0,0,0,.13.12h6.94a.12.12,0,0,0,.13-.12V88.65a.13.13,0,0,0-.13-.13H26.7a1.81,1.81,0,0,1-2-1.94,1.91,1.91,0,0,1,.33-1.17.12.12,0,0,0,0-.18l-1.18-.61a.11.11,0,0,0-.15,0A2.78,2.78,0,0,0,23.15,86.34Z"/><path class="cls-2" d="M26.6,49.48h3.8a.13.13,0,0,0,.13-.13V48.07a.13.13,0,0,0-.13-.13H26.6c-1.58,0-3.45.5-3.45,2.91a2.46,2.46,0,0,0,1.49,2.42,2.1,2.1,0,0,0-1.52,2.1,1.93,1.93,0,0,0,1.37,2h-1a.13.13,0,0,0-.13.13V58.8a.12.12,0,0,0,.13.12h6.94a.12.12,0,0,0,.13-.12V57.51a.13.13,0,0,0-.13-.13H26.59a1.76,1.76,0,0,1-2-1.63c0-1.09,1-1.58,2-1.58h3.8a.13.13,0,0,0,.13-.13V52.75a.12.12,0,0,0-.13-.12H26.6a1.79,1.79,0,0,1-2-1.68C24.65,50.05,25.4,49.48,26.6,49.48Z"/><path class="cls-2" d="M23.14,80.71a3.8,3.8,0,1,0,3.8-3.79A3.8,3.8,0,0,0,23.14,80.71Zm6.1,0a2.3,2.3,0,1,1-2.3-2.3A2.31,2.31,0,0,1,29.24,80.71Z"/><path class="cls-2" d="M30.53,26.43V24.72a.13.13,0,0,0-.21-.1L26.7,27.75,23.58,25.1a.13.13,0,0,0-.21.1v1.69a.18.18,0,0,0,0,.1l2.84,2.4H20.64a.13.13,0,0,0-.12.13v1.29a.13.13,0,0,0,.12.13h9.77a.13.13,0,0,0,.12-.13V29.52a.13.13,0,0,0-.12-.13H27.16l3.33-2.87A.11.11,0,0,0,30.53,26.43Z"/><path class="cls-2" d="M30.73,44a2.78,2.78,0,0,0-1.23-2.38h.91a.12.12,0,0,0,.12-.12V40.22a.13.13,0,0,0-.12-.13H23.46a.12.12,0,0,0-.12.13v1.29a.12.12,0,0,0,.12.12h3.78a1.92,1.92,0,0,1,2.09,1.84,1.82,1.82,0,0,1-2,1.85H23.46a.12.12,0,0,0-.12.13v1.29a.12.12,0,0,0,.12.13h3.9C29.41,46.85,30.73,45.73,30.73,44Z"/><path class="cls-2" d="M23.14,35a2.78,2.78,0,0,0,1.23,2.38h-.91a.12.12,0,0,0-.12.12v1.3a.12.12,0,0,0,.12.12h7a.12.12,0,0,0,.12-.12v-1.3a.13.13,0,0,0-.12-.12H26.62a1.91,1.91,0,0,1-2.08-1.84,1.82,1.82,0,0,1,2-1.85h3.84a.13.13,0,0,0,.12-.13V32.25a.12.12,0,0,0-.12-.12h-3.9C24.46,32.15,23.14,33.26,23.14,35Z"/><path class="cls-2" d="M30.73,63.93a2.57,2.57,0,0,0-1-2.16h.65a.12.12,0,0,0,.12-.13V60.35a.12.12,0,0,0-.12-.13H20.64a.13.13,0,0,0-.12.13v1.29a.13.13,0,0,0,.12.13h3.48a2.56,2.56,0,0,0-1,2.16h0a3.8,3.8,0,0,0,7.59,0Zm-3.79-2.3a2.3,2.3,0,1,1-2.3,2.3A2.3,2.3,0,0,1,26.94,61.63Z"/><path class="cls-2" d="M30.73,72.33a2.57,2.57,0,0,0-1-2.16h.65a.12.12,0,0,0,.12-.12v-1.3a.12.12,0,0,0-.12-.12H23.47a.12.12,0,0,0-.13.12v1.3a.13.13,0,0,0,.13.12h.65a2.56,2.56,0,0,0-1,2.16h0a3.8,3.8,0,1,0,7.59,0ZM26.94,70a2.3,2.3,0,1,1-2.3,2.3A2.3,2.3,0,0,1,26.94,70Z"/></g></g></svg>