<svg xmlns="http://www.w3.org/2000/svg" viewBox="0 0 302.66 302.66"><defs><style>.cls-1{fill:none;}</style></defs><title>PtoP-logo2</title><g id="Layer_2" data-name="Layer 2"><g id="Layer_1-2" data-name="Layer 1"><rect class="cls-1" width="302.66" height="302.66"/><path d="M99.56,74.8H94.11V88.73H72.51V40.91H99.56a16.95,16.95,0,0,1,0,33.89Z"/><path d="M122.58,74.8V40.91h27.05a16.95,16.95,0,0,1,0,33.89l12.68,13.88-15.73,0h-24Z"/><circle cx="195.82" cy="64.81" r="23.91" transform="translate(69.84 228.14) rotate(-70.67)"/><path d="M251.84,88.68H234.6v0h-9.37V40.91h26.61a25,25,0,0,1,0,47.77Z"/><path d="M72.51,109.45V98.66H116.4v29.1c0,8-8.2,15.79-17.24,17.91a20.72,20.72,0,0,1-4.68.56,22.59,22.59,0,0,1-4.69-.5c-9-1.91-17.24-9.08-17.24-18v-2.67h0Z"/><path d="M128.75,105.54a23.9,23.9,0,0,1,33.81,0l-16.91,16.91,16.91,16.9a23.91,23.91,0,0,1-33.81-33.81Z"/><polygon points="168.78 98.66 212.68 98.66 212.68 122.45 202.73 122.45 202.73 146.35 178.72 146.35 178.72 122.45 168.78 122.45 168.78 98.66"/><path d="M99.56,190.2H94.11v13.93H72.51V156.31H99.56a16.95,16.95,0,0,1,0,33.89Z"/><path d="M122.58,190.2V156.31h27.05a16.95,16.95,0,0,1,0,33.89l12.68,13.88-15.73,0h-24Z"/><circle cx="195.82" cy="180.21" r="23.91" transform="translate(-39.05 305.34) rotate(-70.67)"/><path d="M251.84,204.07H247.3v0H234.6v0h-9.37V156.31h26.61a25,25,0,0,1,0,47.76Z"/><path d="M72.51,224.85v-10.8H116.4v29.11c0,8-8.2,15.79-17.24,17.91a20.72,20.72,0,0,1-4.68.56,23.29,23.29,0,0,1-4.69-.5c-9-1.91-17.24-9.08-17.24-18v-2.68h0Z"/><path d="M128.75,220.94a23.9,23.9,0,0,1,33.81,0l-16.91,16.9,16.91,16.91a23.91,23.91,0,0,1-33.81-33.81Z"/><polygon points="168.78 214.05 212.68 214.05 212.68 237.84 202.73 237.84 202.73 261.75 178.72 261.75 178.72 237.84 168.78 237.84 168.78 214.05"/><circle cx="251.11" cy="122.59" r="3.67"/><path d="M245.83,106.61a16,16,0,1,0,16,16A16,16,0,0,0,245.83,106.61Zm-1,12.67h-3.53v8.84h-1.77v-8.84H236v-1.76h8.83Zm6.24,9a5.69,5.69,0,1,1,5.69-5.68A5.68,5.68,0,0,1,251.11,128.27Z"/><path d="M46.22,253.49v4.2h4.17v2h-9.8v-2h4v-4.2h-4v-2h9.8v2Z"/><path d="M50.49,245a5,5,0,1,1-5-5A4.93,4.93,0,0,1,50.49,245Zm-1.75,0a3,3,0,0,0-3.28-3,3,3,0,1,0,0,6A3,3,0,0,0,48.74,245Z"/><path d="M50.49,235.16c0,2-1.07,3.61-2.92,3.64v-2.11a1.35,1.35,0,0,0,1.31-1.49c0-.93-.5-1.48-1.2-1.48-2.12,0-.84,5.06-4.4,5.05-1.77,0-2.84-1.43-2.84-3.46s1-3.38,2.8-3.51V234a1.3,1.3,0,0,0-1.16,1.41c0,.77.35,1.35,1.15,1.35,2,0,.87-5,4.33-5C49.1,231.69,50.49,232.92,50.49,235.16Z"/><path d="M40.59,230.5v-7.19h1.58v2.61h8.22v2H42.17v2.61Z"/><path d="M42.17,216.18v3.73h2.46V216.6h1.56v3.31h2.6v-3.73h1.6v5.69H40.57v-5.69Z"/><path d="M45.5,205.79c3,0,4.89,2,4.89,5.18v3.42h-9.8V211C40.59,207.83,42.52,205.79,45.5,205.79ZM48.72,211a2.94,2.94,0,0,0-3.22-3.24A3,3,0,0,0,42.24,211v1.39h6.48Z"/><path d="M50.39,196.74V201h-9.8v-4.05c0-2,1.06-3.19,2.52-3.19a2.26,2.26,0,0,1,2.25,1.67,2.38,2.38,0,0,1,2.38-1.89C49.3,193.51,50.39,194.7,50.39,196.74Zm-8.22.46V199h2.46v-1.8c0-.92-.42-1.46-1.22-1.46S42.17,196.28,42.17,197.2Zm4-.14V199h2.64v-2c0-1-.46-1.52-1.29-1.52S46.15,196.11,46.15,197.06Z"/><path d="M40.59,192.75v-2.22l4.48-2.11-4.48-2.1v-2.19L47,187.45h3.41v2H47Z"/><circle cx="48.15" cy="160.97" r="4.29"/><path d="M34.83,169.48c-.13-.19-.25-.38-.37-.57H34a.3.3,0,0,0-.3.3V175a.31.31,0,0,0,.3.3h8A15.4,15.4,0,0,1,34.83,169.48Z"/><path d="M33.29,161.28a14.32,14.32,0,0,0,14.31,14h4.54a.3.3,0,0,0,.3-.3v-5.78a.29.29,0,0,0-.3-.3H47.6a8,8,0,0,1-7.93-7.64.31.31,0,0,0-.3-.3H33.59a.3.3,0,0,0-.3.3Z"/><path d="M38.08,143.62a3.63,3.63,0,0,0,2.05,3.63H38.61a.21.21,0,0,0-.21.21v2.14a.21.21,0,0,0,.21.21H50.16a.21.21,0,0,0,.21-.21v-2.14a.21.21,0,0,0-.21-.21H44A3,3,0,0,1,40.73,144a3.19,3.19,0,0,1,.55-1.93.21.21,0,0,0-.07-.31l-2-1a.2.2,0,0,0-.26.05A4.57,4.57,0,0,0,38.08,143.62Z"/><path d="M43.82,82.31h6.33a.2.2,0,0,0,.21-.2V80a.21.21,0,0,0-.21-.21H43.82c-2.62,0-5.73.85-5.73,4.86a4.09,4.09,0,0,0,2.47,4A3.5,3.5,0,0,0,38,92.13a3.22,3.22,0,0,0,2.28,3.32H38.61a.21.21,0,0,0-.21.21v2.15a.22.22,0,0,0,.21.21H50.16a.21.21,0,0,0,.21-.21V95.66a.21.21,0,0,0-.21-.21H43.81c-2.15,0-3.28-1.37-3.28-2.72,0-1.81,1.71-2.63,3.29-2.63h6.33a.2.2,0,0,0,.21-.2V87.75a.21.21,0,0,0-.21-.21H43.82a3,3,0,0,1-3.24-2.79C40.58,83.25,41.82,82.31,43.82,82.31Z"/><path d="M38.08,134.25a6.31,6.31,0,1,0,6.31-6.31A6.32,6.32,0,0,0,38.08,134.25Zm10.13,0a3.82,3.82,0,1,1-3.82-3.82A3.83,3.83,0,0,1,48.21,134.25Z"/><path d="M50.37,44V41.11A.21.21,0,0,0,50,41l-6,5.21-5.2-4.41a.21.21,0,0,0-.35.16v2.81a.21.21,0,0,0,.08.16l4.72,4H33.92a.22.22,0,0,0-.21.21v2.15a.21.21,0,0,0,.21.21H50.16a.21.21,0,0,0,.21-.21V49.1a.22.22,0,0,0-.21-.21h-5.4l5.53-4.78A.19.19,0,0,0,50.37,44Z"/><path d="M50.69,73.21a4.63,4.63,0,0,0-2-4h1.51a.2.2,0,0,0,.2-.21V66.89a.2.2,0,0,0-.2-.2H38.6a.2.2,0,0,0-.2.2V69a.2.2,0,0,0,.2.21h6.29c2,0,3.47,1.21,3.47,3.06S47,75.39,45,75.39H38.6a.21.21,0,0,0-.2.21v2.15a.21.21,0,0,0,.2.21h6.49C48.49,77.92,50.69,76.07,50.69,73.21Z"/><path d="M38.07,58.19a4.62,4.62,0,0,0,2,4h-1.5a.21.21,0,0,0-.21.21V64.5a.21.21,0,0,0,.21.21H50.16a.21.21,0,0,0,.21-.21V62.35a.22.22,0,0,0-.21-.21H43.87c-1.95,0-3.47-1.21-3.47-3.06S41.72,56,43.77,56h6.39a.21.21,0,0,0,.21-.21V53.65a.21.21,0,0,0-.21-.21H43.67C40.27,53.47,38.07,55.33,38.07,58.19Z"/><path d="M50.7,106.34a4.28,4.28,0,0,0-1.62-3.6h1.08a.2.2,0,0,0,.21-.2v-2.15a.21.21,0,0,0-.21-.21H33.92a.21.21,0,0,0-.21.21v2.15a.21.21,0,0,0,.21.2H39.7a4.28,4.28,0,0,0-1.62,3.6h0a6.31,6.31,0,0,0,12.62,0Zm-6.31-3.82a3.82,3.82,0,1,1-3.82,3.82A3.82,3.82,0,0,1,44.39,102.52Z"/><path d="M50.7,120.32a4.28,4.28,0,0,0-1.62-3.6h1.08a.21.21,0,0,0,.21-.21v-2.14a.21.21,0,0,0-.21-.21H38.61a.21.21,0,0,0-.21.21v2.14a.21.21,0,0,0,.21.21H39.7a4.28,4.28,0,0,0-1.62,3.6h0a6.31,6.31,0,0,0,12.62,0Zm-6.31-3.82a3.82,3.82,0,1,1-3.82,3.82A3.82,3.82,0,0,1,44.39,116.5Z"/></g></g></svg>