<svg xmlns="http://www.w3.org/2000/svg" viewBox="0 0 759.07 132.71"><defs><style>.cls-1{fill:none;}</style></defs><title>PtoP-logo3</title><g id="Layer_2" data-name="Layer 2"><g id="Layer_1-2" data-name="Layer 1"><rect class="cls-1" width="759.07" height="132.71"/><path d="M229.74,64.13V54.52h39.1V80.45c0,7.1-7.31,14.06-15.36,16a17.94,17.94,0,0,1-4.17.5,19.74,19.74,0,0,1-4.18-.45c-8-1.7-15.35-8.09-15.35-16V78.06h0Z"/><path d="M73.7,84.6H68.85V97H49.61V54.41H73.7a15.1,15.1,0,1,1,0,30.19Z"/><path d="M94.21,84.6V54.41h24.1a15.1,15.1,0,0,1,0,30.19L129.61,97l-14,.05H94.21Z"/><circle cx="159.46" cy="75.7" r="21.3" transform="matrix(0.33, -0.94, 0.94, 0.33, 35.24, 201.11)"/><path d="M209.37,97H194v0h-8.35V54.41h23.72a22.3,22.3,0,0,1,0,42.55Z"/><path d="M279.84,60.65a21.29,21.29,0,0,1,30.12,0L294.9,75.71,310,90.77a21.3,21.3,0,0,1-30.12-30.12Z"/><polygon points="315.5 54.52 354.6 54.52 354.6 75.71 345.74 75.71 345.74 97.01 324.36 97.01 324.36 75.71 315.5 75.71 315.5 54.52"/><path d="M584.75,64.13V54.52h39.1V80.45c0,7.1-7.3,14.06-15.36,16a17.94,17.94,0,0,1-4.17.5,19.64,19.64,0,0,1-4.17-.45c-8.06-1.7-15.36-8.09-15.36-16V78.06h0Z"/><path d="M428.72,84.6h-4.86V97H404.62V54.41h24.1a15.1,15.1,0,0,1,0,30.19Z"/><path d="M449.22,84.6V54.41h24.1a15.1,15.1,0,0,1,0,30.19L484.62,97l-14,.05H449.22Z"/><circle cx="514.47" cy="75.7" r="21.3" transform="translate(272.74 536.11) rotate(-70.67)"/><path d="M564.38,97H549v0h-8.35V54.41h23.72a22.3,22.3,0,0,1,0,42.55Z"/><path d="M634.85,60.65a21.29,21.29,0,0,1,30.12,0L649.91,75.71,665,90.77a21.3,21.3,0,0,1-30.12-30.12Z"/><polygon points="670.51 54.52 709.61 54.52 709.61 75.71 700.75 75.71 700.75 97.01 679.37 97.01 679.37 75.71 670.51 75.71 670.51 54.52"/><circle cx="384.36" cy="75.71" r="3.28"/><path d="M379.65,61.46A14.25,14.25,0,1,0,393.9,75.71,14.24,14.24,0,0,0,379.65,61.46Zm-.85,11.3h-3.15v7.88h-1.58V72.76h-3.15V71.18h7.88Zm5.56,8a5.08,5.08,0,1,1,5.08-5.07A5.07,5.07,0,0,1,384.36,80.78Z"/><path d="M54.37,34.07H51v3.29H49.45V29.63H51v3.18h3.35V29.63h1.57v7.73H54.37Z"/><path d="M61.11,37.44a4,4,0,1,1,4-4A3.91,3.91,0,0,1,61.11,37.44Zm0-1.39a2.35,2.35,0,0,0,2.39-2.58,2.4,2.4,0,1,0-4.78,0A2.35,2.35,0,0,0,61.11,36.05Z"/><path d="M69,37.44c-1.63,0-2.88-.85-2.9-2.31h1.68a1.06,1.06,0,0,0,1.18,1c.74,0,1.18-.39,1.18-.94,0-1.67-4-.66-4-3.47,0-1.39,1.14-2.23,2.75-2.23s2.7.8,2.8,2.2H69.93a1,1,0,0,0-1.12-.92c-.62,0-1.08.28-1.08.91,0,1.55,4,.69,4,3.41C71.74,36.34,70.76,37.44,69,37.44Z"/><path d="M72.68,29.63h5.74v1.25H76.34v6.48H74.77V30.88H72.68Z"/><path d="M84.1,30.88h-3v1.94h2.63v1.23H81.13V36.1h3v1.26H79.56V29.62H84.1Z"/><path d="M92.38,33.5c0,2.34-1.63,3.86-4.13,3.86H85.52V29.63h2.73C90.75,29.63,92.38,31.16,92.38,33.5ZM88.2,36a2.32,2.32,0,0,0,2.57-2.54,2.35,2.35,0,0,0-2.57-2.57H87.09V36Z"/><path d="M99.59,37.36H96.22V29.63h3.22c1.64,0,2.55.84,2.55,2a1.79,1.79,0,0,1-1.34,1.77,1.89,1.89,0,0,1,1.52,1.87C102.17,36.49,101.21,37.36,99.59,37.36Zm-.37-6.48H97.79v1.94h1.43c.74,0,1.16-.34,1.16-1S100,30.88,99.22,30.88ZM99.33,34H97.79V36.1h1.57c.77,0,1.21-.37,1.21-1S100.09,34,99.33,34Z"/><path d="M102.77,29.63h1.77l1.68,3.53,1.67-3.53h1.75l-2.65,5v2.69h-1.57V34.67Z"/><ellipse cx="127.28" cy="35.59" rx="3.42" ry="3.38"/><path d="M120.5,25.1c.15-.1.3-.2.46-.29v-.35a.23.23,0,0,0-.24-.23h-4.61a.23.23,0,0,0-.24.23v6.32A12.08,12.08,0,0,1,120.5,25.1Z"/><path d="M127,23.88a11.38,11.38,0,0,0-6.07,1.9,11.22,11.22,0,0,0-5.09,9.38v3.57a.24.24,0,0,0,.24.24h4.61a.24.24,0,0,0,.24-.24V35.16A6.29,6.29,0,0,1,127,28.91a.25.25,0,0,0,.24-.24V24.12a.24.24,0,0,0-.24-.24Z"/><path d="M141.11,27.66a2.9,2.9,0,0,0-2.9,1.61V28.08a.17.17,0,0,0-.16-.17h-1.71a.17.17,0,0,0-.17.17v9.1a.16.16,0,0,0,.17.16h1.71a.16.16,0,0,0,.16-.16V32.31a2.4,2.4,0,0,1,2.58-2.57,2.54,2.54,0,0,1,1.54.44.17.17,0,0,0,.25-.06l.81-1.54a.17.17,0,0,0,0-.2A3.77,3.77,0,0,0,141.11,27.66Z"/><path d="M190,32.18v5a.17.17,0,0,0,.17.16h1.71a.17.17,0,0,0,.17-.16v-5c0-2.06-.67-4.52-3.86-4.52a3.26,3.26,0,0,0-3.21,1.95,2.78,2.78,0,0,0-2.79-2,2.56,2.56,0,0,0-2.64,1.8V28.08a.18.18,0,0,0-.17-.17h-1.71a.18.18,0,0,0-.17.17v9.1a.17.17,0,0,0,.17.16h1.71a.17.17,0,0,0,.17-.16v-5a2.31,2.31,0,0,1,2.16-2.58c1.44,0,2.1,1.34,2.1,2.59v5a.16.16,0,0,0,.16.17h1.71a.16.16,0,0,0,.17-.17v-5A2.35,2.35,0,0,1,188,29.63C189.21,29.63,190,30.61,190,32.18Z"/><path d="M148.57,27.65a5,5,0,1,0,5,5A5,5,0,0,0,148.57,27.65Zm0,8a3,3,0,1,1,3-3A3,3,0,0,1,148.57,35.64Z"/><path d="M220.52,37.33h2.26a.17.17,0,0,0,.13-.27l-4.15-4.74,3.51-4.1a.17.17,0,0,0-.13-.27H219.9a.16.16,0,0,0-.13.06l-3.19,3.72V24.38a.16.16,0,0,0-.16-.16H214.7a.16.16,0,0,0-.16.16V37.17a.16.16,0,0,0,.16.16h1.72a.16.16,0,0,0,.16-.16V32.92l3.81,4.36A.19.19,0,0,0,220.52,37.33Z"/><path d="M197.21,37.59A3.69,3.69,0,0,0,200.36,36v1.19a.17.17,0,0,0,.17.16h1.71a.17.17,0,0,0,.17-.16v-9.1a.17.17,0,0,0-.17-.16h-1.71a.17.17,0,0,0-.17.16v5h0a2.52,2.52,0,0,1-2.44,2.74,2.4,2.4,0,0,1-2.45-2.66v-5a.17.17,0,0,0-.17-.16h-1.71a.17.17,0,0,0-.17.16v5.11C193.45,35.86,194.93,37.59,197.21,37.59Z"/><path d="M209.18,27.65A3.72,3.72,0,0,0,206,29.26V28.07a.16.16,0,0,0-.16-.16h-1.71a.17.17,0,0,0-.17.16v9.1a.17.17,0,0,0,.17.16h1.71a.16.16,0,0,0,.16-.16v-5h0a2.51,2.51,0,0,1,2.43-2.74,2.41,2.41,0,0,1,2.46,2.66v5a.16.16,0,0,0,.16.16h1.72a.16.16,0,0,0,.16-.16V32.06C212.93,29.38,211.45,27.65,209.18,27.65Z"/><path d="M170.81,37.6a3.4,3.4,0,0,0,2.86-1.28v.85a.17.17,0,0,0,.17.17h1.71a.17.17,0,0,0,.17-.17V24.38a.17.17,0,0,0-.17-.16h-1.71a.17.17,0,0,0-.17.16v4.55a3.4,3.4,0,0,0-2.86-1.28h0a5,5,0,1,0,0,10Zm3-5a3,3,0,1,1-3-3A3,3,0,0,1,173.85,32.63Z"/><path d="M159.67,37.6a3.43,3.43,0,0,0,2.87-1.28v.85a.16.16,0,0,0,.16.17h1.71a.16.16,0,0,0,.17-.17V28.08a.17.17,0,0,0-.17-.17H162.7a.17.17,0,0,0-.16.17v.85a3.43,3.43,0,0,0-2.87-1.28h0a5,5,0,1,0,0,10Zm3.05-5a3,3,0,1,1-3.05-3A3,3,0,0,1,162.72,32.63Z"/></g></g></svg>