<svg xmlns="http://www.w3.org/2000/svg" viewBox="0 0 455.11 182.55"><defs><style>.cls-1{fill:none;}</style></defs><title>PtoP-logo1</title><g id="Layer_2" data-name="Layer 2"><g id="Layer_1-2" data-name="Layer 1"><rect class="cls-1" width="455.11" height="182.55"/><path d="M232.68,62.77V53.63h37.61V78.28c0,6.75-7,13.38-14.77,15.17a17.72,17.72,0,0,1-4,.48,19.55,19.55,0,0,1-4-.43c-7.74-1.62-14.77-7.69-14.77-15.22V76h0Z"/><path d="M82.6,82.23H77.93V94H59.42V53.52H82.6a14.36,14.36,0,1,1,0,28.71Z"/><path d="M102.32,82.23V53.52H125.5a14.36,14.36,0,1,1,0,28.71L136.37,94l-13.48,0H102.32Z"/><ellipse cx="165.08" cy="73.77" rx="20.49" ry="20.25"/><path d="M213.09,94H198.31v0h-8V53.52h22.81a21.14,21.14,0,0,1,0,40.46Z"/><path d="M280.87,59.46a20.65,20.65,0,0,1,29,0L295.36,73.78,309.84,88.1a20.65,20.65,0,0,1-29,0A20.09,20.09,0,0,1,280.87,59.46Z"/><polygon points="315.17 53.63 352.78 53.63 352.78 73.78 344.26 73.78 344.26 94.03 323.69 94.03 323.69 73.78 315.17 73.78 315.17 53.63"/><path d="M275.58,113.44V104.3h37.61V129c0,6.75-7,13.37-14.77,15.16a17.65,17.65,0,0,1-4,.48,19.55,19.55,0,0,1-4-.43c-7.74-1.61-14.77-7.69-14.77-15.21v-2.27h0Z"/><path d="M125.5,132.9h-4.67v11.8H102.32V104.2H125.5a14.35,14.35,0,1,1,0,28.7Z"/><path d="M145.22,132.9V104.2H168.4a14.35,14.35,0,1,1,0,28.7l10.87,11.76-13.48,0H145.22Z"/><ellipse cx="207.98" cy="124.44" rx="20.49" ry="20.25"/><path d="M256,144.66h-3.9v0H233.18V104.2H256a21.13,21.13,0,0,1,0,40.46Z"/><path d="M323.77,110.13a20.65,20.65,0,0,1,29,0l-14.48,14.32,14.48,14.32a20.65,20.65,0,0,1-29,0A20.09,20.09,0,0,1,323.77,110.13Z"/><polygon points="358.07 104.3 395.69 104.3 395.69 124.45 387.17 124.45 387.17 144.7 366.6 144.7 366.6 124.45 358.07 124.45 358.07 104.3"/><ellipse cx="381.38" cy="73.77" rx="3.15" ry="3.11"/><path d="M376.86,60.24a13.53,13.53,0,1,0,13.69,13.53A13.61,13.61,0,0,0,376.86,60.24ZM376,71h-3v7.48H371.5V71h-3v-1.5H376Zm5.34,7.61a4.82,4.82,0,1,1,4.88-4.82A4.85,4.85,0,0,1,381.38,78.59Z"/><path d="M65.62,40h-4v4h-1.9V34.63h1.9v3.84h4V34.63h1.89V44H65.62Z"/><path d="M73.76,44.06a4.78,4.78,0,1,1,4.83-4.79A4.72,4.72,0,0,1,73.76,44.06Zm0-1.67a2.84,2.84,0,0,0,2.88-3.12,2.89,2.89,0,1,0-5.77,0A2.84,2.84,0,0,0,73.76,42.39Z"/><path d="M83.25,44.06c-2,0-3.47-1-3.5-2.78h2a1.29,1.29,0,0,0,1.43,1.24c.89,0,1.42-.47,1.42-1.14,0-2-4.87-.8-4.85-4.18,0-1.68,1.38-2.7,3.32-2.7s3.26,1,3.38,2.66H84.4a1.23,1.23,0,0,0-1.35-1.11c-.75,0-1.3.33-1.3,1.1,0,1.87,4.84.82,4.84,4.11C86.59,42.73,85.4,44.06,83.25,44.06Z"/><path d="M87.73,34.63h6.92v1.51H92.13V44H90.24V36.14H87.73Z"/><path d="M101.5,36.14H97.92v2.34h3.18V40H97.92v2.47h3.58V44H96V34.62h5.47Z"/><path d="M111.49,39.31c0,2.82-2,4.65-5,4.65h-3.3V34.63h3.3C109.53,34.63,111.49,36.48,111.49,39.31Zm-5,3.06a2.8,2.8,0,0,0,3.11-3.06,2.83,2.83,0,0,0-3.11-3.1h-1.34v6.16Z"/><path d="M120.2,44h-4.07V34.63H120c2,0,3.07,1,3.07,2.41a2.17,2.17,0,0,1-1.61,2.14,2.27,2.27,0,0,1,1.82,2.26C123.31,42.92,122.16,44,120.2,44Zm-.44-7.82H118v2.34h1.73c.89,0,1.4-.4,1.4-1.16S120.65,36.14,119.76,36.14Zm.13,3.79H118v2.51h1.9c.92,0,1.46-.44,1.46-1.23S120.81,39.93,119.89,39.93Z"/><path d="M124,34.63h2.14l2,4.27,2-4.27h2.11l-3.19,6.08V44h-1.89V40.71Z"/><ellipse cx="153.63" cy="41.83" rx="4.13" ry="4.08"/><path d="M145.44,29.16l.56-.35V28.4a.29.29,0,0,0-.29-.29h-5.56a.29.29,0,0,0-.29.29V36A14.65,14.65,0,0,1,145.44,29.16Z"/><path d="M153.33,27.69A13.84,13.84,0,0,0,146,30a13.56,13.56,0,0,0-6.14,11.32v4.32a.29.29,0,0,0,.29.29h5.56a.29.29,0,0,0,.29-.29V41.3a7.6,7.6,0,0,1,7.34-7.54.29.29,0,0,0,.29-.28V28a.29.29,0,0,0-.29-.29Z"/><path d="M170.32,32.25a3.47,3.47,0,0,0-3.49,2V32.76a.2.2,0,0,0-.2-.2h-2.07a.2.2,0,0,0-.2.2v11a.2.2,0,0,0,.2.2h2.07a.2.2,0,0,0,.2-.2V37.87a2.88,2.88,0,0,1,3.11-3.1,3.07,3.07,0,0,1,1.86.53.19.19,0,0,0,.29-.07l1-1.86a.2.2,0,0,0,0-.25A4.51,4.51,0,0,0,170.32,32.25Z"/><path d="M229.28,37.71v6a.2.2,0,0,0,.2.2h2.07a.2.2,0,0,0,.2-.2v-6c0-2.49-.81-5.45-4.66-5.45a3.92,3.92,0,0,0-3.87,2.35,3.37,3.37,0,0,0-3.37-2.4,3.08,3.08,0,0,0-3.19,2.17V32.76a.2.2,0,0,0-.2-.2h-2.07a.2.2,0,0,0-.2.2v11a.2.2,0,0,0,.2.2h2.07a.2.2,0,0,0,.2-.2v-6c0-2,1.31-3.11,2.61-3.11,1.74,0,2.53,1.62,2.53,3.12v6a.2.2,0,0,0,.2.2h2.07a.2.2,0,0,0,.2-.2v-6a2.85,2.85,0,0,1,2.69-3.08C228.38,34.63,229.28,35.81,229.28,37.71Z"/><path d="M179.32,32.25a6,6,0,1,0,6.08,6A6,6,0,0,0,179.32,32.25Zm0,9.63A3.63,3.63,0,1,1,183,38.25,3.66,3.66,0,0,1,179.32,41.88Z"/><path d="M266.17,43.93h2.74a.19.19,0,0,0,.15-.32l-5-5.73,4.24-5a.19.19,0,0,0-.15-.32h-2.71a.2.2,0,0,0-.16.07l-3.85,4.49V28.3a.2.2,0,0,0-.2-.2h-2.06a.2.2,0,0,0-.2.2V43.73a.2.2,0,0,0,.2.2h2.06a.2.2,0,0,0,.2-.2V38.61l4.6,5.25A.19.19,0,0,0,266.17,43.93Z"/><path d="M238,44.24a4.44,4.44,0,0,0,3.8-1.94v1.43a.2.2,0,0,0,.21.2h2.06a.2.2,0,0,0,.2-.2v-11a.2.2,0,0,0-.2-.2h-2.06a.2.2,0,0,0-.21.2v6h0A3,3,0,0,1,238.9,42a2.9,2.9,0,0,1-3-3.21V32.75a.2.2,0,0,0-.2-.2h-2.07a.2.2,0,0,0-.2.2v6.16C233.5,42.15,235.29,44.24,238,44.24Z"/><path d="M252.48,32.25a4.47,4.47,0,0,0-3.8,1.93V32.75a.2.2,0,0,0-.2-.2h-2.07a.2.2,0,0,0-.2.2v11a.2.2,0,0,0,.2.2h2.07a.2.2,0,0,0,.2-.2v-6h0a3,3,0,0,1,2.94-3.29,2.9,2.9,0,0,1,3,3.2v6.07a.2.2,0,0,0,.2.2h2.06a.2.2,0,0,0,.21-.2V37.57C257,34.33,255.24,32.25,252.48,32.25Z"/><path d="M206.17,44.25a4.13,4.13,0,0,0,3.46-1.54v1a.2.2,0,0,0,.2.2h2.07a.2.2,0,0,0,.2-.2V28.3a.2.2,0,0,0-.2-.2h-2.07a.2.2,0,0,0-.2.2v5.49a4.13,4.13,0,0,0-3.46-1.54h0a6,6,0,1,0,0,12Zm3.68-6a3.68,3.68,0,1,1-3.68-3.63A3.65,3.65,0,0,1,209.85,38.25Z"/><path d="M192.73,44.25a4.13,4.13,0,0,0,3.46-1.54v1a.2.2,0,0,0,.2.2h2.06a.2.2,0,0,0,.2-.2v-11a.2.2,0,0,0-.2-.2h-2.06a.2.2,0,0,0-.2.2v1a4.13,4.13,0,0,0-3.46-1.54h0a6,6,0,1,0,0,12Zm3.67-6a3.68,3.68,0,1,1-3.67-3.63A3.64,3.64,0,0,1,196.4,38.25Z"/></g></g></svg>