<svg xmlns="http://www.w3.org/2000/svg" viewBox="0 0 302.66 302.66"><defs><style>.cls-1{fill:#84e3da;}.cls-2{fill:#1f439b;}</style></defs><title>PtoP-podcast</title><g id="Layer_2" data-name="Layer 2"><g id="Layer_1-2" data-name="Layer 1"><rect class="cls-1" width="302.66" height="302.66"/><path class="cls-2" d="M100,74.8H94.53V88.73H72.93V40.91H100a16.95,16.95,0,0,1,0,33.89Z"/><path class="cls-2" d="M123,74.8V40.91h27.05a16.95,16.95,0,0,1,0,33.89l12.68,13.88-15.73,0H123Z"/><circle class="cls-2" cx="196.24" cy="64.81" r="23.91" transform="translate(70.12 228.54) rotate(-70.67)"/><path class="cls-2" d="M252.26,88.68H235v0h-9.37V40.91h26.61a25,25,0,0,1,0,47.77Z"/><path class="cls-2" d="M72.93,109.45V98.66h43.89v29.1c0,8-8.2,15.79-17.24,17.91a20.72,20.72,0,0,1-4.68.56,22.59,22.59,0,0,1-4.69-.5c-9-1.91-17.24-9.08-17.24-18v-2.67h0Z"/><path class="cls-2" d="M129.17,105.54a23.9,23.9,0,0,1,33.81,0l-16.91,16.91L163,139.35a23.91,23.91,0,0,1-33.81-33.81Z"/><polygon class="cls-2" points="169.2 98.66 213.09 98.66 213.09 122.45 203.15 122.45 203.15 146.35 179.15 146.35 179.15 122.45 169.2 122.45 169.2 98.66"/><path class="cls-2" d="M100,190.2H94.53v13.93H72.93V156.31H100a16.95,16.95,0,0,1,0,33.89Z"/><path class="cls-2" d="M123,190.2V156.31h27.05a16.95,16.95,0,0,1,0,33.89l12.68,13.88-15.73,0H123Z"/><circle class="cls-2" cx="196.24" cy="180.21" r="23.91" transform="translate(-38.77 305.74) rotate(-70.67)"/><path class="cls-2" d="M252.26,204.07h-4.54v0H235v0h-9.37V156.31h26.61a25,25,0,0,1,0,47.76Z"/><path class="cls-2" d="M72.93,224.85v-10.8h43.89v29.11c0,8-8.2,15.79-17.24,17.91a20.72,20.72,0,0,1-4.68.56,23.29,23.29,0,0,1-4.69-.5c-9-1.91-17.24-9.08-17.24-18v-2.68h0Z"/><path class="cls-2" d="M129.17,220.94a23.9,23.9,0,0,1,33.81,0l-16.91,16.9L163,254.75a23.91,23.91,0,0,1-33.81-33.81Z"/><polygon class="cls-2" points="169.2 214.05 213.09 214.05 213.09 237.84 203.15 237.84 203.15 261.75 179.15 261.75 179.15 237.84 169.2 237.84 169.2 214.05"/><path class="cls-2" d="M46.64,253.49v4.2h4.17v2H41v-2h4v-4.2H41v-2h9.8v2Z"/><path class="cls-2" d="M50.91,245a5,5,0,1,1-5-5A4.93,4.93,0,0,1,50.91,245Zm-1.75,0a3,3,0,0,0-3.28-3,3,3,0,1,0,0,6A3,3,0,0,0,49.16,245Z"/><path class="cls-2" d="M50.91,235.16c0,2-1.07,3.61-2.92,3.64v-2.11a1.35,1.35,0,0,0,1.31-1.49c0-.93-.5-1.48-1.2-1.48-2.12,0-.84,5.06-4.4,5.05-1.77,0-2.84-1.43-2.84-3.46s1-3.38,2.8-3.51V234a1.3,1.3,0,0,0-1.16,1.41c0,.77.35,1.35,1.15,1.35,2,0,.87-5,4.33-5C49.52,231.69,50.91,232.92,50.91,235.16Z"/><path class="cls-2" d="M41,230.5v-7.19h1.58v2.61h8.22v2H42.59v2.61Z"/><path class="cls-2" d="M42.59,216.18v3.73h2.46V216.6h1.56v3.31h2.6v-3.73h1.6v5.69H41v-5.69Z"/><path class="cls-2" d="M45.92,205.79c3,0,4.89,2,4.89,5.18v3.42H41V211C41,207.83,42.94,205.79,45.92,205.79ZM49.14,211a2.94,2.94,0,0,0-3.22-3.24A3,3,0,0,0,42.66,211v1.39h6.48Z"/><path class="cls-2" d="M50.81,196.74V201H41v-4.05c0-2,1.06-3.19,2.52-3.19a2.26,2.26,0,0,1,2.25,1.67,2.38,2.38,0,0,1,2.38-1.89C49.72,193.51,50.81,194.7,50.81,196.74Zm-8.22.46V199h2.46v-1.8c0-.92-.42-1.46-1.22-1.46S42.59,196.28,42.59,197.2Zm4-.14V199h2.64v-2c0-1-.46-1.52-1.29-1.52S46.57,196.11,46.57,197.06Z"/><path class="cls-2" d="M41,192.75v-2.22l4.48-2.11L41,186.32v-2.19l6.39,3.32h3.41v2H47.4Z"/><circle class="cls-2" cx="48.57" cy="160.97" r="4.29"/><path class="cls-2" d="M35.25,169.48c-.13-.19-.25-.38-.37-.57h-.44a.29.29,0,0,0-.29.3V175a.3.3,0,0,0,.29.3h8A15.4,15.4,0,0,1,35.25,169.48Z"/><path class="cls-2" d="M33.71,161.28a14.32,14.32,0,0,0,14.31,14h4.54a.3.3,0,0,0,.3-.3v-5.78a.29.29,0,0,0-.3-.3H48a8,8,0,0,1-7.93-7.64.3.3,0,0,0-.3-.3H34a.3.3,0,0,0-.3.3Z"/><path class="cls-2" d="M38.5,143.62a3.63,3.63,0,0,0,2,3.63H39a.21.21,0,0,0-.21.21v2.14a.21.21,0,0,0,.21.21H50.58a.21.21,0,0,0,.21-.21v-2.14a.21.21,0,0,0-.21-.21H44.41A3,3,0,0,1,41.15,144a3.19,3.19,0,0,1,.55-1.93.21.21,0,0,0-.07-.31l-2-1a.2.2,0,0,0-.26.05A4.57,4.57,0,0,0,38.5,143.62Z"/><path class="cls-2" d="M44.24,82.31h6.33a.2.2,0,0,0,.21-.2V80a.21.21,0,0,0-.21-.21H44.24c-2.62,0-5.73.85-5.73,4.86a4.09,4.09,0,0,0,2.47,4,3.5,3.5,0,0,0-2.52,3.5,3.22,3.22,0,0,0,2.28,3.32H39a.21.21,0,0,0-.21.21v2.15A.22.22,0,0,0,39,98H50.58a.21.21,0,0,0,.21-.21V95.66a.21.21,0,0,0-.21-.21H44.23c-2.15,0-3.27-1.37-3.27-2.72,0-1.81,1.7-2.63,3.28-2.63h6.33a.2.2,0,0,0,.21-.2V87.75a.21.21,0,0,0-.21-.21H44.24A3,3,0,0,1,41,84.75C41,83.25,42.24,82.31,44.24,82.31Z"/><path class="cls-2" d="M38.5,134.25a6.31,6.31,0,1,0,6.31-6.31A6.32,6.32,0,0,0,38.5,134.25Zm10.13,0a3.82,3.82,0,1,1-3.82-3.82A3.83,3.83,0,0,1,48.63,134.25Z"/><path class="cls-2" d="M50.79,44V41.11a.21.21,0,0,0-.35-.15l-6,5.21-5.2-4.41a.21.21,0,0,0-.35.16v2.81a.21.21,0,0,0,.08.16l4.72,4H34.34a.22.22,0,0,0-.21.21v2.15a.21.21,0,0,0,.21.21H50.58a.21.21,0,0,0,.21-.21V49.1a.22.22,0,0,0-.21-.21h-5.4l5.53-4.78A.19.19,0,0,0,50.79,44Z"/><path class="cls-2" d="M51.11,73.21a4.63,4.63,0,0,0-2-4h1.51a.2.2,0,0,0,.2-.21V66.89a.2.2,0,0,0-.2-.2H39a.2.2,0,0,0-.21.2V69a.21.21,0,0,0,.21.21h6.28c1.95,0,3.47,1.21,3.47,3.06s-1.32,3.08-3.37,3.08H39a.21.21,0,0,0-.21.21v2.15A.21.21,0,0,0,39,78h6.48C48.91,77.92,51.11,76.07,51.11,73.21Z"/><path class="cls-2" d="M38.49,58.19a4.62,4.62,0,0,0,2,4H39a.21.21,0,0,0-.21.21V64.5a.21.21,0,0,0,.21.21H50.58a.21.21,0,0,0,.21-.21V62.35a.22.22,0,0,0-.21-.21H44.29c-1.95,0-3.47-1.21-3.47-3.06S42.14,56,44.19,56h6.39a.21.21,0,0,0,.21-.21V53.65a.21.21,0,0,0-.21-.21H44.1C40.69,53.47,38.49,55.33,38.49,58.19Z"/><path class="cls-2" d="M51.12,106.34a4.28,4.28,0,0,0-1.62-3.6h1.08a.2.2,0,0,0,.21-.2v-2.15a.21.21,0,0,0-.21-.21H34.34a.21.21,0,0,0-.21.21v2.15a.21.21,0,0,0,.21.2h5.78a4.28,4.28,0,0,0-1.62,3.6h0a6.31,6.31,0,1,0,12.62,0Zm-6.31-3.82A3.82,3.82,0,1,1,41,106.34,3.82,3.82,0,0,1,44.81,102.52Z"/><path class="cls-2" d="M51.12,120.32a4.28,4.28,0,0,0-1.62-3.6h1.08a.21.21,0,0,0,.21-.21v-2.14a.21.21,0,0,0-.21-.21H39a.21.21,0,0,0-.21.21v2.14a.21.21,0,0,0,.21.21h1.09a4.28,4.28,0,0,0-1.62,3.6h0a6.31,6.31,0,1,0,12.62,0Zm-6.31-3.82A3.82,3.82,0,1,1,41,120.32,3.82,3.82,0,0,1,44.81,116.5Z"/></g></g></svg>