<svg xmlns="http://www.w3.org/2000/svg" xmlns:xlink="http://www.w3.org/1999/xlink" viewBox="0 0 455.11 192.71"><defs><style>.cls-1{fill:url(#linear-gradient);}.cls-2{fill:#84e3da;}.cls-3{fill:#1f439b;}.cls-4{fill:#fff;}</style><linearGradient id="linear-gradient" y1="96.35" x2="455.11" y2="96.35" gradientUnits="userSpaceOnUse"><stop offset="0" stop-color="#f05f5b"/><stop offset="1" stop-color="#ff7a61"/></linearGradient></defs><title>PtoP-medium</title><g id="Layer_2" data-name="Layer 2"><g id="Layer_1-2" data-name="Layer 1"><rect class="cls-1" width="455.11" height="192.71"/><path class="cls-2" d="M232.06,70V60.87h37.61V85.53c0,6.75-7,13.37-14.77,15.16a17.74,17.74,0,0,1-4,.48,19.45,19.45,0,0,1-4-.43c-7.75-1.61-14.77-7.69-14.77-15.22V83.26h0Z"/><path class="cls-2" d="M82,89.47H77.31v11.8H58.8V60.77H82a14.35,14.35,0,1,1,0,28.7Z"/><path class="cls-2" d="M101.7,89.47V60.77h23.18a14.35,14.35,0,1,1,0,28.7l10.87,11.76-13.48,0H101.7Z"/><ellipse class="cls-2" cx="164.46" cy="81.01" rx="20.49" ry="20.25"/><path class="cls-2" d="M212.46,101.22h-9.28l-5.49,0h-8V60.77h22.8a21.13,21.13,0,0,1,0,40.45Z"/><path class="cls-2" d="M280.25,66.7a20.65,20.65,0,0,1,29,0L294.73,81l14.49,14.32a20.65,20.65,0,0,1-29,0A20.09,20.09,0,0,1,280.25,66.7Z"/><polygon class="cls-2" points="314.55 60.87 352.16 60.87 352.16 81.02 343.64 81.02 343.64 101.27 323.07 101.27 323.07 81.02 314.55 81.02 314.55 60.87"/><path class="cls-2" d="M275,120.69v-9.15h37.61V136.2c0,6.75-7,13.37-14.77,15.17a17.72,17.72,0,0,1-4,.48,20.26,20.26,0,0,1-4-.43C282,149.8,275,143.72,275,136.2v-2.27h0Z"/><path class="cls-2" d="M124.88,140.15h-4.67V152H101.7V111.44h23.18a14.36,14.36,0,1,1,0,28.71Z"/><path class="cls-2" d="M144.6,140.15V111.44h23.18a14.36,14.36,0,1,1,0,28.71l10.87,11.75-13.48,0H144.6Z"/><ellipse class="cls-2" cx="207.36" cy="131.69" rx="20.49" ry="20.25"/><path class="cls-2" d="M255.37,151.9H240.59v0h-8V111.44h22.81a21.14,21.14,0,0,1,0,40.46Z"/><path class="cls-2" d="M323.15,117.37a20.65,20.65,0,0,1,29,0l-14.48,14.32L352.12,146a20.65,20.65,0,0,1-29,0A20.09,20.09,0,0,1,323.15,117.37Z"/><polygon class="cls-2" points="357.45 111.54 395.06 111.54 395.06 131.69 386.54 131.69 386.54 151.95 365.97 151.95 365.97 131.69 357.45 131.69 357.45 111.54"/><ellipse class="cls-3" cx="380.76" cy="81.02" rx="3.15" ry="3.11"/><path class="cls-3" d="M376.24,67.49A13.53,13.53,0,1,0,389.93,81,13.61,13.61,0,0,0,376.24,67.49Zm-.82,10.73h-3V85.7h-1.52V78.22h-3v-1.5h7.57Zm5.34,7.61A4.82,4.82,0,1,1,385.63,81,4.84,4.84,0,0,1,380.76,85.83Z"/><path class="cls-4" d="M65,47.24H61v4h-1.9V41.88H61v3.83h4V41.88h1.89v9.33H65Z"/><path class="cls-4" d="M73.14,51.3A4.78,4.78,0,1,1,78,46.51,4.71,4.71,0,0,1,73.14,51.3Zm0-1.67A2.84,2.84,0,0,0,76,46.51a2.9,2.9,0,1,0-5.78,0A2.85,2.85,0,0,0,73.14,49.63Z"/><path class="cls-4" d="M82.63,51.3c-2,0-3.48-1-3.5-2.78h2a1.28,1.28,0,0,0,1.43,1.24c.89,0,1.42-.47,1.42-1.13,0-2-4.87-.81-4.86-4.19,0-1.68,1.38-2.7,3.33-2.7s3.26,1,3.38,2.66H83.78a1.25,1.25,0,0,0-1.35-1.11c-.75,0-1.3.34-1.3,1.1,0,1.87,4.84.83,4.84,4.12C86,50,84.78,51.3,82.63,51.3Z"/><path class="cls-4" d="M87.1,41.88H94v1.51H91.51v7.82H89.62V43.39H87.1Z"/><path class="cls-4" d="M100.88,43.39H97.3v2.34h3.18v1.48H97.3v2.47h3.58v1.53H95.41V41.86h5.47Z"/><path class="cls-4" d="M110.87,46.55c0,2.82-2,4.66-5,4.66h-3.3V41.88h3.3C108.91,41.88,110.87,43.72,110.87,46.55Zm-5,3.06a2.8,2.8,0,0,0,3.11-3.06,2.84,2.84,0,0,0-3.11-3.1h-1.34v6.16Z"/><path class="cls-4" d="M119.58,51.21h-4.07V41.88h3.89c2,0,3.07,1,3.07,2.4a2.15,2.15,0,0,1-1.61,2.14,2.27,2.27,0,0,1,1.83,2.26C122.69,50.16,121.54,51.21,119.58,51.21Zm-.45-7.82H117.4v2.34h1.73c.9,0,1.41-.41,1.41-1.17S120,43.39,119.13,43.39Zm.14,3.78H117.4v2.51h1.91c.92,0,1.46-.44,1.46-1.23S120.19,47.17,119.27,47.17Z"/><path class="cls-4" d="M123.42,41.88h2.14l2,4.26,2-4.26h2.11L128.52,48v3.25h-1.9V48Z"/><ellipse class="cls-4" cx="153" cy="49.07" rx="4.13" ry="4.08"/><path class="cls-4" d="M144.82,36.4l.55-.35v-.41a.29.29,0,0,0-.29-.29h-5.56a.29.29,0,0,0-.28.29v7.63A14.65,14.65,0,0,1,144.82,36.4Z"/><path class="cls-4" d="M152.71,34.94a13.78,13.78,0,0,0-7.34,2.28,13.6,13.6,0,0,0-6.13,11.33v4.32a.29.29,0,0,0,.28.28h5.56a.29.29,0,0,0,.29-.28V48.55A7.59,7.59,0,0,1,152.72,41a.29.29,0,0,0,.28-.29v-5.5a.28.28,0,0,0-.28-.28Z"/><path class="cls-4" d="M169.7,39.49a3.47,3.47,0,0,0-3.49,1.95V40a.2.2,0,0,0-.2-.2h-2.07a.2.2,0,0,0-.2.2V51a.2.2,0,0,0,.2.2H166a.2.2,0,0,0,.2-.2V45.11a2.89,2.89,0,0,1,3.11-3.1,3.09,3.09,0,0,1,1.86.53.19.19,0,0,0,.29-.07l1-1.86a.2.2,0,0,0,0-.24A4.48,4.48,0,0,0,169.7,39.49Z"/><path class="cls-4" d="M228.66,45v6a.2.2,0,0,0,.2.2h2.07a.2.2,0,0,0,.2-.2V45c0-2.49-.81-5.45-4.67-5.45a3.93,3.93,0,0,0-3.87,2.35,3.35,3.35,0,0,0-3.36-2.4,3.1,3.1,0,0,0-3.2,2.17V40a.2.2,0,0,0-.2-.2h-2.06a.2.2,0,0,0-.2.2V51a.2.2,0,0,0,.2.2h2.06a.2.2,0,0,0,.2-.2V45c0-2.05,1.32-3.12,2.62-3.12,1.74,0,2.53,1.62,2.53,3.12v6a.2.2,0,0,0,.2.2h2.06a.2.2,0,0,0,.2-.2V45a2.83,2.83,0,0,1,2.68-3.07C227.76,41.88,228.66,43.05,228.66,45Z"/><path class="cls-4" d="M178.7,39.49a6,6,0,1,0,6.07,6A6,6,0,0,0,178.7,39.49Zm0,9.64a3.64,3.64,0,1,1,3.68-3.64A3.66,3.66,0,0,1,178.7,49.13Z"/><path class="cls-4" d="M265.55,51.18h2.73a.2.2,0,0,0,.16-.33l-5-5.73,4.24-4.94a.2.2,0,0,0-.16-.33H264.8a.23.23,0,0,0-.15.07l-3.85,4.49V35.54a.2.2,0,0,0-.2-.2h-2.07a.2.2,0,0,0-.2.2V51a.2.2,0,0,0,.2.2h2.07a.2.2,0,0,0,.2-.2V45.85l4.6,5.26A.21.21,0,0,0,265.55,51.18Z"/><path class="cls-4" d="M237.42,51.48a4.44,4.44,0,0,0,3.8-1.94V51a.19.19,0,0,0,.2.19h2.07a.19.19,0,0,0,.2-.19V40a.2.2,0,0,0-.2-.2h-2.07a.2.2,0,0,0-.2.2v6h0a3,3,0,0,1-2.94,3.3,2.9,2.9,0,0,1-3-3.21V40a.2.2,0,0,0-.2-.2h-2.07a.2.2,0,0,0-.2.2v6.17C232.88,49.4,234.67,51.48,237.42,51.48Z"/><path class="cls-4" d="M251.86,39.49a4.44,4.44,0,0,0-3.8,1.94V40a.19.19,0,0,0-.2-.19h-2.07a.19.19,0,0,0-.2.19V51a.2.2,0,0,0,.2.2h2.07a.2.2,0,0,0,.2-.2V45h0A3,3,0,0,1,251,41.7a2.9,2.9,0,0,1,3,3.21V51a.2.2,0,0,0,.2.2h2.06a.2.2,0,0,0,.2-.2V44.81C256.4,41.57,254.61,39.49,251.86,39.49Z"/><path class="cls-4" d="M205.55,51.49A4.13,4.13,0,0,0,209,50v1a.2.2,0,0,0,.2.2h2.07a.2.2,0,0,0,.2-.2V35.54a.2.2,0,0,0-.2-.2h-2.07a.2.2,0,0,0-.2.2V41a4.13,4.13,0,0,0-3.46-1.54h0a6,6,0,1,0,0,12Zm3.68-6a3.68,3.68,0,1,1-3.68-3.63A3.66,3.66,0,0,1,209.23,45.49Z"/><path class="cls-4" d="M192.11,51.49A4.12,4.12,0,0,0,195.56,50v1a.2.2,0,0,0,.2.2h2.07a.2.2,0,0,0,.2-.2V40a.2.2,0,0,0-.2-.2h-2.07a.2.2,0,0,0-.2.2v1a4.12,4.12,0,0,0-3.45-1.54h0a6,6,0,1,0,0,12Zm3.67-6a3.68,3.68,0,1,1-3.67-3.63A3.65,3.65,0,0,1,195.78,45.49Z"/></g></g></svg>