<svg xmlns="http://www.w3.org/2000/svg" viewBox="0 0 179.48 25.58"><title>roadmunk-logo-b</title><g id="Layer_2" data-name="Layer 2"><g id="Layer_1-2" data-name="Layer 1"><circle cx="19.12" cy="19.86" r="5.73"/><path d="M7.75,2.06c.25-.17.51-.33.77-.49V1a.4.4,0,0,0-.4-.4H.4A.4.4,0,0,0,0,1V11.7A20.55,20.55,0,0,1,7.75,2.06Z"/><path d="M18.71,0A19.14,19.14,0,0,0,0,19.12v6.06a.39.39,0,0,0,.4.4H8.12a.39.39,0,0,0,.4-.4V19.12A10.62,10.62,0,0,1,18.73,8.52a.39.39,0,0,0,.39-.39V.4a.4.4,0,0,0-.4-.4Z"/><path d="M42.3,6.4c-3.87,0-4.85,2.73-4.85,2.73v-2a.28.28,0,0,0-.28-.28H34.3a.28.28,0,0,0-.27.28V22.54a.28.28,0,0,0,.27.28h2.87a.28.28,0,0,0,.28-.28V14.29a4,4,0,0,1,4.32-4.35,4.15,4.15,0,0,1,2.58.74.28.28,0,0,0,.41-.1L46.12,8a.27.27,0,0,0-.07-.34A6.13,6.13,0,0,0,42.3,6.4Z"/><path d="M124.18,14.07v8.45a.27.27,0,0,0,.28.28h2.87a.27.27,0,0,0,.27-.28V14.07c0-3.5-1.13-7.66-6.48-7.66a5.47,5.47,0,0,0-5.38,3.31,4.67,4.67,0,0,0-4.67-3.38,4.31,4.31,0,0,0-4.44,3.05V7.11a.28.28,0,0,0-.28-.28h-2.87a.28.28,0,0,0-.27.28V22.54a.28.28,0,0,0,.27.28h2.87a.28.28,0,0,0,.28-.28V14.06c0-2.88,1.83-4.38,3.63-4.38,2.42,0,3.52,2.27,3.52,4.39v8.45a.28.28,0,0,0,.28.28h2.87a.27.27,0,0,0,.28-.28V14.07c0-2.47,1.6-4.32,3.72-4.32S124.18,11.4,124.18,14.07Z"/><path d="M54.81,6.4a8.43,8.43,0,1,0,8.43,8.43A8.45,8.45,0,0,0,54.81,6.4Zm0,13.53a5.11,5.11,0,1,1,5.1-5.1A5.11,5.11,0,0,1,54.81,19.93Z"/><path d="M175.41,22.81h3.79a.28.28,0,0,0,.22-.46l-7-8,5.89-6.94a.28.28,0,0,0-.22-.46h-3.76a.28.28,0,0,0-.21.1l-5.35,6.3V.85a.27.27,0,0,0-.27-.28h-2.87a.27.27,0,0,0-.28.28V22.53a.27.27,0,0,0,.28.28h2.87a.27.27,0,0,0,.27-.28v-7.2l6.39,7.38A.28.28,0,0,0,175.41,22.81Z"/><path d="M136.34,23.24a6.16,6.16,0,0,0,5.28-2.72v2a.29.29,0,0,0,.28.28h2.87a.28.28,0,0,0,.28-.28V7.1a.28.28,0,0,0-.28-.28H141.9a.29.29,0,0,0-.28.28v8.4h0c0,2.6-1.61,4.63-4.08,4.63s-4.12-1.76-4.12-4.5V7.1a.28.28,0,0,0-.28-.28h-2.87a.28.28,0,0,0-.27.28v8.66C130,20.31,132.52,23.24,136.34,23.24Z"/><path d="M156.4,6.39a6.16,6.16,0,0,0-5.28,2.72v-2a.29.29,0,0,0-.28-.28H148a.29.29,0,0,0-.28.28V22.53a.28.28,0,0,0,.28.28h2.87a.28.28,0,0,0,.28-.28v-8.4h0c0-2.6,1.62-4.63,4.08-4.63s4.12,1.77,4.12,4.5v8.53a.28.28,0,0,0,.28.28h2.87a.28.28,0,0,0,.28-.28V13.87C162.7,9.32,160.22,6.39,156.4,6.39Z"/><path d="M92.09,23.26a5.7,5.7,0,0,0,4.8-2.17v1.45a.29.29,0,0,0,.28.28H100a.29.29,0,0,0,.28-.28V.85A.28.28,0,0,0,100,.57H97.17a.28.28,0,0,0-.28.28V8.56a5.71,5.71,0,0,0-4.8-2.16h0a8.43,8.43,0,0,0,0,16.86Zm5.1-8.43a5.11,5.11,0,1,1-5.1-5.11A5.1,5.1,0,0,1,97.19,14.83Z"/><path d="M73.42,23.26a5.7,5.7,0,0,0,4.8-2.17v1.45a.29.29,0,0,0,.28.28h2.87a.29.29,0,0,0,.28-.28V7.11a.29.29,0,0,0-.28-.28H78.5a.29.29,0,0,0-.28.28V8.56a5.71,5.71,0,0,0-4.8-2.16h0a8.43,8.43,0,0,0,0,16.86Zm5.1-8.43a5.11,5.11,0,1,1-5.1-5.11A5.1,5.1,0,0,1,78.52,14.83Z"/></g></g></svg>