<svg xmlns="http://www.w3.org/2000/svg" viewBox="0 0 127.51 68.46"><defs><style>.cls-1{fill:#ff7b57;}.cls-2{fill:#26d1c4;}.cls-3{fill:#007ae5;}.cls-4{fill:#3cb7f7;}.cls-5{fill:#093447;}</style></defs><title>roadmunk-logo-alt</title><g id="Layer_2" data-name="Layer 2"><g id="Layer_1-2" data-name="Layer 1"><circle class="cls-1" cx="71.99" cy="26.04" r="7.51"/><path class="cls-2" d="M58.09,4.21V1.29a.52.52,0,0,0-.52-.52H47.44a.52.52,0,0,0-.52.52V25.06A25.07,25.07,0,0,1,58.09,4.21Z"/><path class="cls-3" d="M46.92,25.06v8a.52.52,0,0,0,.52.53H57.57a.52.52,0,0,0,.52-.53V4.21A25.07,25.07,0,0,0,46.92,25.06Z"/><path class="cls-4" d="M58.09,4.21V25.06A13.91,13.91,0,0,1,71.48,11.18a.53.53,0,0,0,.51-.52V.53A.52.52,0,0,0,71.45,0,24.87,24.87,0,0,0,58.09,4.21Z"/><path class="cls-5" d="M7.26,53.68c-3.4,0-4.26,2.4-4.26,2.4V54.31a.25.25,0,0,0-.24-.25H.24a.25.25,0,0,0-.24.25V67.83a.25.25,0,0,0,.24.25H2.76A.25.25,0,0,0,3,67.83V60.6a3.53,3.53,0,0,1,3.79-3.81,3.72,3.72,0,0,1,2.26.64.24.24,0,0,0,.36-.08l1.19-2.29a.23.23,0,0,0-.06-.3A5.4,5.4,0,0,0,7.26,53.68Z"/><path class="cls-5" d="M79,60.4v7.42a.24.24,0,0,0,.24.24h2.52a.24.24,0,0,0,.24-.24V60.4c0-3.06-1-6.71-5.68-6.71a4.78,4.78,0,0,0-4.71,2.9,4.11,4.11,0,0,0-4.1-3,3.77,3.77,0,0,0-3.89,2.67v-2a.25.25,0,0,0-.24-.25H60.89a.25.25,0,0,0-.24.25V67.83a.25.25,0,0,0,.24.25h2.52a.25.25,0,0,0,.24-.25V60.4c0-2.52,1.6-3.84,3.18-3.84,2.12,0,3.09,2,3.09,3.84v7.42a.24.24,0,0,0,.24.24h2.52a.24.24,0,0,0,.24-.24V60.4c0-2.16,1.4-3.78,3.27-3.78S79,58.07,79,60.4Z"/><path class="cls-5" d="M18.22,53.68a7.39,7.39,0,1,0,7.39,7.39A7.39,7.39,0,0,0,18.22,53.68Zm0,11.86a4.48,4.48,0,1,1,4.47-4.47A4.48,4.48,0,0,1,18.22,65.54Z"/><path class="cls-5" d="M123.94,68.07h3.33a.25.25,0,0,0,.18-.41l-6.1-7,5.17-6.09a.25.25,0,0,0-.19-.4H123a.21.21,0,0,0-.18.09l-4.69,5.53V48.81a.24.24,0,0,0-.24-.24H115.4a.24.24,0,0,0-.24.24v19a.25.25,0,0,0,.24.25h2.52a.25.25,0,0,0,.24-.25V61.51l5.6,6.47A.21.21,0,0,0,123.94,68.07Z"/><path class="cls-5" d="M89.69,68.45a5.41,5.41,0,0,0,4.63-2.39v1.76a.25.25,0,0,0,.25.25h2.51a.25.25,0,0,0,.25-.25V54.3a.25.25,0,0,0-.25-.25H94.57a.25.25,0,0,0-.25.25v7.36h0c0,2.28-1.41,4.06-3.58,4.06s-3.61-1.55-3.61-3.95V54.3a.24.24,0,0,0-.24-.25H84.37a.25.25,0,0,0-.24.25v7.59C84.17,65.88,86.35,68.45,89.69,68.45Z"/><path class="cls-5" d="M107.28,53.68a5.41,5.41,0,0,0-4.63,2.38V54.3a.24.24,0,0,0-.25-.24H99.89a.24.24,0,0,0-.25.24V67.82a.25.25,0,0,0,.25.25h2.51a.25.25,0,0,0,.25-.25V60.46h0c0-2.28,1.42-4.06,3.58-4.06s3.61,1.55,3.61,4v7.47a.25.25,0,0,0,.24.25h2.52a.25.25,0,0,0,.24-.25V60.23C112.8,56.25,110.63,53.68,107.28,53.68Z"/><path class="cls-5" d="M50.9,68.46a5,5,0,0,0,4.21-1.9v1.27a.25.25,0,0,0,.24.25h2.52a.25.25,0,0,0,.24-.25v-19a.24.24,0,0,0-.24-.24H55.35a.24.24,0,0,0-.24.24v6.77a5,5,0,0,0-4.21-1.9h0a7.39,7.39,0,0,0,0,14.78Zm4.47-7.39a4.47,4.47,0,1,1-4.47-4.48A4.47,4.47,0,0,1,55.37,61.07Z"/><path class="cls-5" d="M34.53,68.46a5,5,0,0,0,4.21-1.9v1.27a.25.25,0,0,0,.25.25H41.5a.25.25,0,0,0,.25-.25V54.31a.25.25,0,0,0-.25-.25H39a.25.25,0,0,0-.25.25v1.27a5,5,0,0,0-4.21-1.9h0a7.39,7.39,0,0,0,0,14.78ZM39,61.07a4.48,4.48,0,1,1-4.48-4.48A4.48,4.48,0,0,1,39,61.07Z"/></g></g></svg>