<svg xmlns="http://www.w3.org/2000/svg" viewBox="0 0 179.49 25.58"><defs><style>.cls-1{fill:#fff;}</style></defs><title>roadmunk-logo-w</title><g id="Layer_2" data-name="Layer 2"><g id="Layer_1-2" data-name="Layer 1"><circle class="cls-1" cx="19.12" cy="19.86" r="5.73"/><path class="cls-1" d="M7.75,2.06c.25-.17.51-.33.77-.49V1a.4.4,0,0,0-.4-.4H.4A.4.4,0,0,0,0,1V11.7A20.55,20.55,0,0,1,7.75,2.06Z"/><path class="cls-1" d="M18.71,0A19.14,19.14,0,0,0,0,19.12v6.06a.39.39,0,0,0,.4.4H8.12a.39.39,0,0,0,.4-.4V19.12A10.62,10.62,0,0,1,18.73,8.52a.39.39,0,0,0,.39-.39V.4a.4.4,0,0,0-.4-.4Z"/><path class="cls-1" d="M42.31,6.4c-3.87,0-4.85,2.73-4.85,2.73v-2a.29.29,0,0,0-.28-.28H34.31a.29.29,0,0,0-.28.28V22.54a.29.29,0,0,0,.28.28h2.87a.29.29,0,0,0,.28-.28V14.29a4,4,0,0,1,4.32-4.35,4.17,4.17,0,0,1,2.58.74.28.28,0,0,0,.41-.1L46.12,8a.26.26,0,0,0-.06-.34A6.15,6.15,0,0,0,42.31,6.4Z"/><path class="cls-1" d="M124.19,14.07v8.45a.28.28,0,0,0,.28.28h2.87a.28.28,0,0,0,.28-.28V14.07c0-3.5-1.12-7.66-6.48-7.66a5.45,5.45,0,0,0-5.37,3.31,4.68,4.68,0,0,0-4.67-3.38,4.31,4.31,0,0,0-4.44,3.05V7.11a.29.29,0,0,0-.28-.28h-2.87a.29.29,0,0,0-.28.28V22.54a.29.29,0,0,0,.28.28h2.87a.29.29,0,0,0,.28-.28V14.06c0-2.88,1.83-4.38,3.63-4.38,2.41,0,3.52,2.27,3.52,4.39v8.45a.27.27,0,0,0,.28.28h2.87a.28.28,0,0,0,.28-.28V14.07c0-2.47,1.6-4.32,3.73-4.32S124.19,11.4,124.19,14.07Z"/><path class="cls-1" d="M54.81,6.4a8.43,8.43,0,1,0,8.43,8.43A8.44,8.44,0,0,0,54.81,6.4Zm0,13.53a5.11,5.11,0,1,1,5.11-5.1A5.11,5.11,0,0,1,54.81,19.93Z"/><path class="cls-1" d="M175.42,22.81h3.79a.28.28,0,0,0,.21-.46l-7-8,5.89-6.94a.28.28,0,0,0-.21-.46h-3.76a.28.28,0,0,0-.21.1l-5.35,6.3V.85a.28.28,0,0,0-.28-.28h-2.87a.28.28,0,0,0-.28.28V22.53a.28.28,0,0,0,.28.28h2.87a.28.28,0,0,0,.28-.28v-7.2l6.39,7.38A.28.28,0,0,0,175.42,22.81Z"/><path class="cls-1" d="M136.35,23.24a6.18,6.18,0,0,0,5.28-2.72v2a.28.28,0,0,0,.28.28h2.87a.29.29,0,0,0,.28-.28V7.1a.29.29,0,0,0-.28-.28h-2.87a.28.28,0,0,0-.28.28v8.4h0c0,2.6-1.62,4.63-4.09,4.63s-4.11-1.76-4.11-4.5V7.1a.29.29,0,0,0-.28-.28h-2.87a.29.29,0,0,0-.28.28v8.66C130.05,20.31,132.53,23.24,136.35,23.24Z"/><path class="cls-1" d="M156.41,6.39a6.19,6.19,0,0,0-5.29,2.72v-2a.28.28,0,0,0-.27-.28H148a.28.28,0,0,0-.28.28V22.53a.27.27,0,0,0,.28.28h2.87a.27.27,0,0,0,.27-.28v-8.4h0c0-2.6,1.62-4.63,4.09-4.63s4.12,1.77,4.12,4.5v8.53a.28.28,0,0,0,.27.28h2.87a.27.27,0,0,0,.28-.28V13.87C162.71,9.32,160.22,6.39,156.41,6.39Z"/><path class="cls-1" d="M92.09,23.26a5.73,5.73,0,0,0,4.81-2.17v1.45a.28.28,0,0,0,.27.28H100a.28.28,0,0,0,.28-.28V.85A.27.27,0,0,0,100,.57H97.17a.27.27,0,0,0-.27.28V8.56A5.74,5.74,0,0,0,92.09,6.4h0a8.43,8.43,0,0,0,0,16.86Zm5.11-8.43a5.11,5.11,0,1,1-5.11-5.11A5.1,5.1,0,0,1,97.2,14.83Z"/><path class="cls-1" d="M73.42,23.26a5.73,5.73,0,0,0,4.81-2.17v1.45a.28.28,0,0,0,.27.28h2.87a.28.28,0,0,0,.28-.28V7.11a.28.28,0,0,0-.28-.28H78.5a.28.28,0,0,0-.27.28V8.56A5.74,5.74,0,0,0,73.42,6.4h0a8.43,8.43,0,0,0,0,16.86Zm5.11-8.43a5.11,5.11,0,1,1-5.11-5.11A5.1,5.1,0,0,1,78.53,14.83Z"/></g></g></svg>