<svg xmlns="http://www.w3.org/2000/svg" viewBox="0 0 29.87 30.76"><defs><style>.cls-1{fill:#fff;}</style></defs><title>roadmunk-icon-w</title><g id="Layer_2" data-name="Layer 2"><g id="Layer_1-2" data-name="Layer 1"><circle class="cls-1" cx="22.99" cy="23.87" r="6.89"/><path class="cls-1" d="M9.32,2.47c.3-.2.61-.39.93-.58V1.18A.49.49,0,0,0,9.76.7H.48A.49.49,0,0,0,0,1.18V14.07A24.72,24.72,0,0,1,9.32,2.47Z"/><path class="cls-1" d="M22.5,0A23,23,0,0,0,0,23v7.3a.49.49,0,0,0,.48.48H9.76a.49.49,0,0,0,.49-.48V23A12.75,12.75,0,0,1,22.52,10.25.48.48,0,0,0,23,9.77V.48A.49.49,0,0,0,22.51,0Z"/></g></g></svg>