<svg id="Layer_1" data-name="Layer 1" xmlns="http://www.w3.org/2000/svg" viewBox="0 0 300 300"><defs><style>.cls-1{fill:#fea02e;}.cls-2{fill:#ffcc05;}.cls-3{fill:#f76631;}.cls-4{fill:#00354d;}.cls-5{fill:#093447;}</style></defs><title>6-funtogether</title><circle class="cls-1" cx="207.71" cy="150" r="60.67"/><circle class="cls-2" cx="120.41" cy="150" r="60.67"/><path class="cls-3" d="M147,150a60.45,60.45,0,0,0,17,42.11,60.63,60.63,0,0,0,0-84.22A60.45,60.45,0,0,0,147,150"/><circle class="cls-4" cx="99.32" cy="132.24" r="2.66"/><circle class="cls-4" cx="142.23" cy="132.24" r="2.66"/><path class="cls-5" d="M120.78,179.59A29.63,29.63,0,0,1,91.18,150h3a26.64,26.64,0,0,0,53.27,0h3A29.62,29.62,0,0,1,120.78,179.59Z"/><circle class="cls-4" cx="186.25" cy="132.24" r="2.66"/><circle class="cls-4" cx="229.16" cy="132.24" r="2.66"/><path class="cls-5" d="M207.71,179.59A29.63,29.63,0,0,1,178.11,150h3a26.64,26.64,0,0,0,53.27,0h3A29.62,29.62,0,0,1,207.71,179.59Z"/><rect class="cls-3" x="118.93" y="61.22" width="2.96" height="14.8"/><rect class="cls-3" x="78.24" y="72.12" width="2.96" height="14.8" transform="translate(-29.08 50.51) rotate(-30)"/><rect class="cls-3" x="48.45" y="101.91" width="2.96" height="14.8" transform="matrix(0.5, -0.87, 0.87, 0.5, -69.7, 97.89)"/><rect class="cls-3" x="31.62" y="148.52" width="14.8" height="2.96"/><rect class="cls-3" x="42.53" y="189.21" width="14.8" height="2.96" transform="translate(-88.64 50.5) rotate(-29.99)"/><rect class="cls-3" x="72.32" y="219" width="14.8" height="2.96" transform="translate(-151.09 179.3) rotate(-60.01)"/><rect class="cls-3" x="118.93" y="223.98" width="2.96" height="14.8"/><rect class="cls-3" x="159.62" y="213.08" width="2.96" height="14.8" transform="translate(-88.66 110.09) rotate(-30)"/><rect class="cls-3" x="153.7" y="78.04" width="14.8" height="2.96" transform="translate(11.69 179.29) rotate(-60.01)"/></svg>